<?xml version="1.0" encoding="UTF-8" standalone="no"?>
<!-- Created with Inkscape (http://www.inkscape.org/) -->

<svg
   xmlns:dc="http://purl.org/dc/elements/1.1/"
   xmlns:cc="http://creativecommons.org/ns#"
   xmlns:rdf="http://www.w3.org/1999/02/22-rdf-syntax-ns#"
   xmlns:svg="http://www.w3.org/2000/svg"
   xmlns="http://www.w3.org/2000/svg"
   xmlns:sodipodi="http://sodipodi.sourceforge.net/DTD/sodipodi-0.dtd"
   xmlns:inkscape="http://www.inkscape.org/namespaces/inkscape"
   width="47.155777mm"
   height="27.22728mm"
   viewBox="0 0 47.155777 27.22728"
   version="1.1"
   id="svg8"
   inkscape:version="0.92.4 (5da689c313, 2019-01-14)"
   sodipodi:docname="banner.svg">
  <defs
     id="defs2">
    <clipPath
       clipPathUnits="userSpaceOnUse"
       id="clipPath1037">
      <path
         style="opacity:0.51700003;fill:#002c3d;fill-opacity:1;stroke:none;stroke-width:2.59612083;stroke-miterlimit:4;stroke-dasharray:none;stroke-opacity:1"
         d="m 14.052889,136.31829 h -47.155778 v 27.22728 h 47.155778 z"
         id="path1039"
         inkscape:connector-curvature="0" />
    </clipPath>
  </defs>
  <sodipodi:namedview
     id="base"
     pagecolor="#ffffff"
     bordercolor="#666666"
     borderopacity="1.0"
     inkscape:pageopacity="0.0"
     inkscape:pageshadow="2"
     inkscape:zoom="1"
     inkscape:cx="60.827567"
     inkscape:cy="56.865145"
     inkscape:document-units="px"
     inkscape:current-layer="layer1"
     showgrid="false"
     showborder="false"
     fit-margin-top="0"
     fit-margin-left="0"
     fit-margin-right="0"
     fit-margin-bottom="0"
     inkscape:window-width="1366"
     inkscape:window-height="705"
     inkscape:window-x="-8"
     inkscape:window-y="-8"
     inkscape:window-maximized="1" />
  <metadata
     id="metadata5">
    <rdf:RDF>
      <cc:Work
         rdf:about="">
        <dc:format>image/svg+xml</dc:format>
        <dc:type
           rdf:resource="http://purl.org/dc/dcmitype/StillImage" />
        <dc:title></dc:title>
      </cc:Work>
    </rdf:RDF>
  </metadata>
  <g
     inkscape:label="Layer 1"
     inkscape:groupmode="layer"
     id="layer1"
     transform="translate(33.102889,-136.31829)">
    <g
       id="g1007"
       clip-path="url(#clipPath1037)">
      <path
         id="path833"
         transform="scale(0.26458333)"
         d="M -65.707031,498.07031 -95.410156,515.21875 -36,549.51953 23.410156,515.21875 -6.2929688,498.07031 -36,515.2207 Z"
         style="opacity:1;fill:#c72c41;fill-opacity:1;stroke:none;stroke-width:3.77952766;stroke-miterlimit:4;stroke-dasharray:none;stroke-opacity:1"
         inkscape:connector-curvature="0" />
      <path
         inkscape:connector-curvature="0"
         style="opacity:1;fill:#801336;fill-opacity:1;stroke:none;stroke-width:1;stroke-miterlimit:4;stroke-dasharray:none;stroke-opacity:1"
         d="m -17.383874,159.00696 7.8588071,4.53746 6.7e-5,-18.15071 -15.7190041,-9.07529 1.45e-4,9.07465 7.859765,4.53809 z"
         id="path858" />
      <path
         id="path860"
         d="m -1.6661259,159.00696 -7.858807,4.53746 -6.7e-5,-18.15071 15.7190041,-9.07529 -1.45e-4,9.07465 -7.8597651,4.53809 z"
         style="opacity:1;fill:#ee4540;fill-opacity:1;stroke:none;stroke-width:1;stroke-miterlimit:4;stroke-dasharray:none;stroke-opacity:1"
         inkscape:connector-curvature="0" />
      <path
         inkscape:connector-curvature="0"
         style="opacity:1;fill:#c72c41;fill-opacity:1;stroke:none;stroke-width:1;stroke-miterlimit:4;stroke-dasharray:none;stroke-opacity:1"
         d="m -17.386096,104.55524 -7.858952,4.53719 15.7189371,9.07542 15.7189369,-9.07542 -7.8589517,-4.53719 -7.8599852,4.53771 z"
         id="path862" />
      <path
         id="path864"
         d="m -17.384985,131.7811 7.858807,4.53746 6.7e-5,-18.15071 -15.719004,-9.07529 1.45e-4,9.07465 7.859765,4.53809 z"
         style="opacity:1;fill:#801336;fill-opacity:1;stroke:none;stroke-width:1;stroke-miterlimit:4;stroke-dasharray:none;stroke-opacity:1"
         inkscape:connector-curvature="0" />
      <path
         inkscape:connector-curvature="0"
         style="opacity:1;fill:#ee4540;fill-opacity:1;stroke:none;stroke-width:1;stroke-miterlimit:4;stroke-dasharray:none;stroke-opacity:1"
         d="m -1.667237,131.7811 -7.858807,4.53746 -6.7e-5,-18.15071 15.7190041,-9.07529 -1.45e-4,9.07465 -7.8597651,4.53809 z"
         id="path866" />
      <path
         id="path868"
         d="m -40.963016,118.16823 -7.858952,4.53719 15.718937,9.07542 15.718937,-9.07542 -7.858951,-4.53719 -7.859986,4.53771 z"
         style="opacity:1;fill:#c72c41;fill-opacity:1;stroke:none;stroke-width:1;stroke-miterlimit:4;stroke-dasharray:none;stroke-opacity:1"
         inkscape:connector-curvature="0" />
      <path
         inkscape:connector-curvature="0"
         style="opacity:1;fill:#801336;fill-opacity:1;stroke:none;stroke-width:1;stroke-miterlimit:4;stroke-dasharray:none;stroke-opacity:1"
         d="m -40.961905,145.39409 7.858807,4.53746 6.7e-5,-18.15071 -15.719004,-9.07529 1.45e-4,9.07465 7.859765,4.53809 z"
         id="path870" />
      <path
         id="path872"
         d="m -25.244157,145.39409 -7.858807,4.53746 -6.7e-5,-18.15071 15.719004,-9.07529 -1.45e-4,9.07465 -7.859765,4.53809 z"
         style="opacity:1;fill:#ee4540;fill-opacity:1;stroke:none;stroke-width:1;stroke-miterlimit:4;stroke-dasharray:none;stroke-opacity:1"
         inkscape:connector-curvature="0" />
      <path
         inkscape:connector-curvature="0"
         style="opacity:1;fill:#c72c41;fill-opacity:1;stroke:none;stroke-width:1;stroke-miterlimit:4;stroke-dasharray:none;stroke-opacity:1"
         d="m -40.962949,145.39384 -7.858952,4.53719 15.718937,9.07542 15.718937,-9.07542 -7.858951,-4.53719 -7.859986,4.53771 z"
         id="path874" />
      <path
         id="path876"
         d="m -40.961838,172.6197 7.858807,4.53746 6.7e-5,-18.15071 -15.719004,-9.07529 1.45e-4,9.07465 7.859765,4.53809 z"
         style="opacity:1;fill:#801336;fill-opacity:1;stroke:none;stroke-width:1;stroke-miterlimit:4;stroke-dasharray:none;stroke-opacity:1"
         inkscape:connector-curvature="0" />
      <path
         inkscape:connector-curvature="0"
         style="opacity:1;fill:#ee4540;fill-opacity:1;stroke:none;stroke-width:1;stroke-miterlimit:4;stroke-dasharray:none;stroke-opacity:1"
         d="m -25.24409,172.6197 -7.858807,4.53746 -6.7e-5,-18.15071 15.719004,-9.07529 -1.45e-4,9.07465 -7.859765,4.53809 z"
         id="path878" />
      <path
         id="path880"
         d="m -17.385216,159.00773 -7.858952,4.53719 15.718937,9.07542 15.718937,-9.07542 -7.858951,-4.53719 -7.859986,4.53771 z"
         style="opacity:1;fill:#c72c41;fill-opacity:1;stroke:none;stroke-width:1;stroke-miterlimit:4;stroke-dasharray:none;stroke-opacity:1"
         inkscape:connector-curvature="0" />
      <path
         inkscape:connector-curvature="0"
         style="opacity:1;fill:#801336;fill-opacity:1;stroke:none;stroke-width:1;stroke-miterlimit:4;stroke-dasharray:none;stroke-opacity:1"
         d="m -17.384105,186.23359 7.858807,4.53746 6.7e-5,-18.15071 -15.719004,-9.07529 1.45e-4,9.07465 7.859765,4.53809 z"
         id="path882" />
      <path
         id="path884"
         d="m -1.666357,186.23359 -7.858807,4.53746 -6.7e-5,-18.15071 15.719004,-9.07529 -1.45e-4,9.07465 -7.859765,4.53809 z"
         style="opacity:1;fill:#ee4540;fill-opacity:1;stroke:none;stroke-width:1;stroke-miterlimit:4;stroke-dasharray:none;stroke-opacity:1"
         inkscape:connector-curvature="0" />
      <path
         inkscape:connector-curvature="0"
         style="opacity:1;fill:#c72c41;fill-opacity:1;stroke:none;stroke-width:1;stroke-miterlimit:4;stroke-dasharray:none;stroke-opacity:1"
         d="m 6.192882,145.39499 -7.858952,4.53719 15.718937,9.07542 15.718937,-9.07542 -7.858951,-4.53719 -7.859986,4.53771 z"
         id="path886" />
      <path
         id="path888"
         d="m 6.193993,172.62085 7.858807,4.53746 6.7e-5,-18.15071 -15.719004,-9.07529 1.45e-4,9.07465 7.859765,4.53809 z"
         style="opacity:1;fill:#801336;fill-opacity:1;stroke:none;stroke-width:1;stroke-miterlimit:4;stroke-dasharray:none;stroke-opacity:1"
         inkscape:connector-curvature="0" />
      <path
         inkscape:connector-curvature="0"
         style="opacity:1;fill:#ee4540;fill-opacity:1;stroke:none;stroke-width:1;stroke-miterlimit:4;stroke-dasharray:none;stroke-opacity:1"
         d="m 21.911741,172.62085 -7.858807,4.53746 -6.7e-5,-18.15071 15.719004,-9.07529 -1.45e-4,9.07465 -7.859765,4.53809 z"
         id="path890" />
      <path
         id="path892"
         d="m 6.193046,118.16823 -7.858952,4.53719 15.718937,9.07542 15.718937,-9.07542 -7.858951,-4.53719 -7.859986,4.53771 z"
         style="opacity:1;fill:#c72c41;fill-opacity:1;stroke:none;stroke-width:1;stroke-miterlimit:4;stroke-dasharray:none;stroke-opacity:1"
         inkscape:connector-curvature="0" />
      <path
         inkscape:connector-curvature="0"
         style="opacity:1;fill:#801336;fill-opacity:1;stroke:none;stroke-width:1;stroke-miterlimit:4;stroke-dasharray:none;stroke-opacity:1"
         d="m 6.194157,145.39409 7.858807,4.53746 6.7e-5,-18.15071 -15.719004,-9.07529 1.45e-4,9.07465 7.859765,4.53809 z"
         id="path894" />
      <path
         id="path896"
         d="m 21.911905,145.39409 -7.858807,4.53746 -6.7e-5,-18.15071 15.719004,-9.07529 -1.45e-4,9.07465 -7.859765,4.53809 z"
         style="opacity:1;fill:#ee4540;fill-opacity:1;stroke:none;stroke-width:1;stroke-miterlimit:4;stroke-dasharray:none;stroke-opacity:1"
         inkscape:connector-curvature="0" />
    </g>
    <g
       clip-path="url(#clipPath1037)"
       id="g1083">
      <path
         style="opacity:1;fill:#c72c41;fill-opacity:1;stroke:none;stroke-width:3.77952766;stroke-miterlimit:4;stroke-dasharray:none;stroke-opacity:1"
         d="M -65.707031,498.07031 -95.410156,515.21875 -36,549.51953 23.410156,515.21875 -6.2929688,498.07031 -36,515.2207 Z"
         transform="scale(0.26458333)"
         id="path1041"
         inkscape:connector-curvature="0" />
      <path
         id="path1043"
         d="m -17.383874,159.00696 7.8588071,4.53746 6.7e-5,-18.15071 -15.7190041,-9.07529 1.45e-4,9.07465 7.859765,4.53809 z"
         style="opacity:1;fill:#801336;fill-opacity:1;stroke:none;stroke-width:1;stroke-miterlimit:4;stroke-dasharray:none;stroke-opacity:1"
         inkscape:connector-curvature="0" />
      <path
         inkscape:connector-curvature="0"
         style="opacity:1;fill:#ee4540;fill-opacity:1;stroke:none;stroke-width:1;stroke-miterlimit:4;stroke-dasharray:none;stroke-opacity:1"
         d="m -1.6661259,159.00696 -7.858807,4.53746 -6.7e-5,-18.15071 15.7190041,-9.07529 -1.45e-4,9.07465 -7.8597651,4.53809 z"
         id="path1045" />
      <path
         id="path1047"
         d="m -17.386096,104.55524 -7.858952,4.53719 15.7189371,9.07542 15.7189369,-9.07542 -7.8589517,-4.53719 -7.8599852,4.53771 z"
         style="opacity:1;fill:#c72c41;fill-opacity:1;stroke:none;stroke-width:1;stroke-miterlimit:4;stroke-dasharray:none;stroke-opacity:1"
         inkscape:connector-curvature="0" />
      <path
         inkscape:connector-curvature="0"
         style="opacity:1;fill:#801336;fill-opacity:1;stroke:none;stroke-width:1;stroke-miterlimit:4;stroke-dasharray:none;stroke-opacity:1"
         d="m -17.384985,131.7811 7.858807,4.53746 6.7e-5,-18.15071 -15.719004,-9.07529 1.45e-4,9.07465 7.859765,4.53809 z"
         id="path1049" />
      <path
         id="path1051"
         d="m -1.667237,131.7811 -7.858807,4.53746 -6.7e-5,-18.15071 15.7190041,-9.07529 -1.45e-4,9.07465 -7.8597651,4.53809 z"
         style="opacity:1;fill:#ee4540;fill-opacity:1;stroke:none;stroke-width:1;stroke-miterlimit:4;stroke-dasharray:none;stroke-opacity:1"
         inkscape:connector-curvature="0" />
      <path
         inkscape:connector-curvature="0"
         style="opacity:1;fill:#c72c41;fill-opacity:1;stroke:none;stroke-width:1;stroke-miterlimit:4;stroke-dasharray:none;stroke-opacity:1"
         d="m -40.963016,118.16823 -7.858952,4.53719 15.718937,9.07542 15.718937,-9.07542 -7.858951,-4.53719 -7.859986,4.53771 z"
         id="path1053" />
      <path
         id="path1055"
         d="m -40.961905,145.39409 7.858807,4.53746 6.7e-5,-18.15071 -15.719004,-9.07529 1.45e-4,9.07465 7.859765,4.53809 z"
         style="opacity:1;fill:#801336;fill-opacity:1;stroke:none;stroke-width:1;stroke-miterlimit:4;stroke-dasharray:none;stroke-opacity:1"
         inkscape:connector-curvature="0" />
      <path
         inkscape:connector-curvature="0"
         style="opacity:1;fill:#ee4540;fill-opacity:1;stroke:none;stroke-width:1;stroke-miterlimit:4;stroke-dasharray:none;stroke-opacity:1"
         d="m -25.244157,145.39409 -7.858807,4.53746 -6.7e-5,-18.15071 15.719004,-9.07529 -1.45e-4,9.07465 -7.859765,4.53809 z"
         id="path1057" />
      <path
         id="path1059"
         d="m -40.962949,145.39384 -7.858952,4.53719 15.718937,9.07542 15.718937,-9.07542 -7.858951,-4.53719 -7.859986,4.53771 z"
         style="opacity:1;fill:#c72c41;fill-opacity:1;stroke:none;stroke-width:1;stroke-miterlimit:4;stroke-dasharray:none;stroke-opacity:1"
         inkscape:connector-curvature="0" />
      <path
         inkscape:connector-curvature="0"
         style="opacity:1;fill:#801336;fill-opacity:1;stroke:none;stroke-width:1;stroke-miterlimit:4;stroke-dasharray:none;stroke-opacity:1"
         d="m -40.961838,172.6197 7.858807,4.53746 6.7e-5,-18.15071 -15.719004,-9.07529 1.45e-4,9.07465 7.859765,4.53809 z"
         id="path1061" />
      <path
         id="path1063"
         d="m -25.24409,172.6197 -7.858807,4.53746 -6.7e-5,-18.15071 15.719004,-9.07529 -1.45e-4,9.07465 -7.859765,4.53809 z"
         style="opacity:1;fill:#ee4540;fill-opacity:1;stroke:none;stroke-width:1;stroke-miterlimit:4;stroke-dasharray:none;stroke-opacity:1"
         inkscape:connector-curvature="0" />
      <path
         inkscape:connector-curvature="0"
         style="opacity:1;fill:#c72c41;fill-opacity:1;stroke:none;stroke-width:1;stroke-miterlimit:4;stroke-dasharray:none;stroke-opacity:1"
         d="m -17.385216,159.00773 -7.858952,4.53719 15.718937,9.07542 15.718937,-9.07542 -7.858951,-4.53719 -7.859986,4.53771 z"
         id="path1065" />
      <path
         id="path1067"
         d="m -17.384105,186.23359 7.858807,4.53746 6.7e-5,-18.15071 -15.719004,-9.07529 1.45e-4,9.07465 7.859765,4.53809 z"
         style="opacity:1;fill:#801336;fill-opacity:1;stroke:none;stroke-width:1;stroke-miterlimit:4;stroke-dasharray:none;stroke-opacity:1"
         inkscape:connector-curvature="0" />
      <path
         inkscape:connector-curvature="0"
         style="opacity:1;fill:#ee4540;fill-opacity:1;stroke:none;stroke-width:1;stroke-miterlimit:4;stroke-dasharray:none;stroke-opacity:1"
         d="m -1.666357,186.23359 -7.858807,4.53746 -6.7e-5,-18.15071 15.719004,-9.07529 -1.45e-4,9.07465 -7.859765,4.53809 z"
         id="path1069" />
      <path
         id="path1071"
         d="m 6.192882,145.39499 -7.858952,4.53719 15.718937,9.07542 15.718937,-9.07542 -7.858951,-4.53719 -7.859986,4.53771 z"
         style="opacity:1;fill:#c72c41;fill-opacity:1;stroke:none;stroke-width:1;stroke-miterlimit:4;stroke-dasharray:none;stroke-opacity:1"
         inkscape:connector-curvature="0" />
      <path
         inkscape:connector-curvature="0"
         style="opacity:1;fill:#801336;fill-opacity:1;stroke:none;stroke-width:1;stroke-miterlimit:4;stroke-dasharray:none;stroke-opacity:1"
         d="m 6.193993,172.62085 7.858807,4.53746 6.7e-5,-18.15071 -15.719004,-9.07529 1.45e-4,9.07465 7.859765,4.53809 z"
         id="path1073" />
      <path
         id="path1075"
         d="m 21.911741,172.62085 -7.858807,4.53746 -6.7e-5,-18.15071 15.719004,-9.07529 -1.45e-4,9.07465 -7.859765,4.53809 z"
         style="opacity:1;fill:#ee4540;fill-opacity:1;stroke:none;stroke-width:1;stroke-miterlimit:4;stroke-dasharray:none;stroke-opacity:1"
         inkscape:connector-curvature="0" />
      <path
         inkscape:connector-curvature="0"
         style="opacity:1;fill:#c72c41;fill-opacity:1;stroke:none;stroke-width:1;stroke-miterlimit:4;stroke-dasharray:none;stroke-opacity:1"
         d="m 6.193046,118.16823 -7.858952,4.53719 15.718937,9.07542 15.718937,-9.07542 -7.858951,-4.53719 -7.859986,4.53771 z"
         id="path1077" />
      <path
         id="path1079"
         d="m 6.194157,145.39409 7.858807,4.53746 6.7e-5,-18.15071 -15.719004,-9.07529 1.45e-4,9.07465 7.859765,4.53809 z"
         style="opacity:1;fill:#801336;fill-opacity:1;stroke:none;stroke-width:1;stroke-miterlimit:4;stroke-dasharray:none;stroke-opacity:1"
         inkscape:connector-curvature="0" />
      <path
         inkscape:connector-curvature="0"
         style="opacity:1;fill:#ee4540;fill-opacity:1;stroke:none;stroke-width:1;stroke-miterlimit:4;stroke-dasharray:none;stroke-opacity:1"
         d="m 21.911905,145.39409 -7.858807,4.53746 -6.7e-5,-18.15071 15.719004,-9.07529 -1.45e-4,9.07465 -7.859765,4.53809 z"
         id="path1081" />
    </g>
    <g
       id="g1127"
       clip-path="url(#clipPath1037)">
      <path
         id="path1085"
         transform="scale(0.26458333)"
         d="M -65.707031,498.07031 -95.410156,515.21875 -36,549.51953 23.410156,515.21875 -6.2929688,498.07031 -36,515.2207 Z"
         style="opacity:1;fill:#c72c41;fill-opacity:1;stroke:none;stroke-width:3.77952766;stroke-miterlimit:4;stroke-dasharray:none;stroke-opacity:1"
         inkscape:connector-curvature="0" />
      <path
         inkscape:connector-curvature="0"
         style="opacity:1;fill:#801336;fill-opacity:1;stroke:none;stroke-width:1;stroke-miterlimit:4;stroke-dasharray:none;stroke-opacity:1"
         d="m -17.383874,159.00696 7.8588071,4.53746 6.7e-5,-18.15071 -15.7190041,-9.07529 1.45e-4,9.07465 7.859765,4.53809 z"
         id="path1087" />
      <path
         id="path1089"
         d="m -1.6661259,159.00696 -7.858807,4.53746 -6.7e-5,-18.15071 15.7190041,-9.07529 -1.45e-4,9.07465 -7.8597651,4.53809 z"
         style="opacity:1;fill:#ee4540;fill-opacity:1;stroke:none;stroke-width:1;stroke-miterlimit:4;stroke-dasharray:none;stroke-opacity:1"
         inkscape:connector-curvature="0" />
      <path
         inkscape:connector-curvature="0"
         style="opacity:1;fill:#c72c41;fill-opacity:1;stroke:none;stroke-width:1;stroke-miterlimit:4;stroke-dasharray:none;stroke-opacity:1"
         d="m -17.386096,104.55524 -7.858952,4.53719 15.7189371,9.07542 15.7189369,-9.07542 -7.8589517,-4.53719 -7.8599852,4.53771 z"
         id="path1091" />
      <path
         id="path1093"
         d="m -17.384985,131.7811 7.858807,4.53746 6.7e-5,-18.15071 -15.719004,-9.07529 1.45e-4,9.07465 7.859765,4.53809 z"
         style="opacity:1;fill:#801336;fill-opacity:1;stroke:none;stroke-width:1;stroke-miterlimit:4;stroke-dasharray:none;stroke-opacity:1"
         inkscape:connector-curvature="0" />
      <path
         inkscape:connector-curvature="0"
         style="opacity:1;fill:#ee4540;fill-opacity:1;stroke:none;stroke-width:1;stroke-miterlimit:4;stroke-dasharray:none;stroke-opacity:1"
         d="m -1.667237,131.7811 -7.858807,4.53746 -6.7e-5,-18.15071 15.7190041,-9.07529 -1.45e-4,9.07465 -7.8597651,4.53809 z"
         id="path1095" />
      <path
         id="path1097"
         d="m -40.963016,118.16823 -7.858952,4.53719 15.718937,9.07542 15.718937,-9.07542 -7.858951,-4.53719 -7.859986,4.53771 z"
         style="opacity:1;fill:#c72c41;fill-opacity:1;stroke:none;stroke-width:1;stroke-miterlimit:4;stroke-dasharray:none;stroke-opacity:1"
         inkscape:connector-curvature="0" />
      <path
         inkscape:connector-curvature="0"
         style="opacity:1;fill:#801336;fill-opacity:1;stroke:none;stroke-width:1;stroke-miterlimit:4;stroke-dasharray:none;stroke-opacity:1"
         d="m -40.961905,145.39409 7.858807,4.53746 6.7e-5,-18.15071 -15.719004,-9.07529 1.45e-4,9.07465 7.859765,4.53809 z"
         id="path1099" />
      <path
         id="path1101"
         d="m -25.244157,145.39409 -7.858807,4.53746 -6.7e-5,-18.15071 15.719004,-9.07529 -1.45e-4,9.07465 -7.859765,4.53809 z"
         style="opacity:1;fill:#ee4540;fill-opacity:1;stroke:none;stroke-width:1;stroke-miterlimit:4;stroke-dasharray:none;stroke-opacity:1"
         inkscape:connector-curvature="0" />
      <path
         inkscape:connector-curvature="0"
         style="opacity:1;fill:#c72c41;fill-opacity:1;stroke:none;stroke-width:1;stroke-miterlimit:4;stroke-dasharray:none;stroke-opacity:1"
         d="m -40.962949,145.39384 -7.858952,4.53719 15.718937,9.07542 15.718937,-9.07542 -7.858951,-4.53719 -7.859986,4.53771 z"
         id="path1103" />
      <path
         id="path1105"
         d="m -40.961838,172.6197 7.858807,4.53746 6.7e-5,-18.15071 -15.719004,-9.07529 1.45e-4,9.07465 7.859765,4.53809 z"
         style="opacity:1;fill:#801336;fill-opacity:1;stroke:none;stroke-width:1;stroke-miterlimit:4;stroke-dasharray:none;stroke-opacity:1"
         inkscape:connector-curvature="0" />
      <path
         inkscape:connector-curvature="0"
         style="opacity:1;fill:#ee4540;fill-opacity:1;stroke:none;stroke-width:1;stroke-miterlimit:4;stroke-dasharray:none;stroke-opacity:1"
         d="m -25.24409,172.6197 -7.858807,4.53746 -6.7e-5,-18.15071 15.719004,-9.07529 -1.45e-4,9.07465 -7.859765,4.53809 z"
         id="path1107" />
      <path
         id="path1109"
         d="m -17.385216,159.00773 -7.858952,4.53719 15.718937,9.07542 15.718937,-9.07542 -7.858951,-4.53719 -7.859986,4.53771 z"
         style="opacity:1;fill:#c72c41;fill-opacity:1;stroke:none;stroke-width:1;stroke-miterlimit:4;stroke-dasharray:none;stroke-opacity:1"
         inkscape:connector-curvature="0" />
      <path
         inkscape:connector-curvature="0"
         style="opacity:1;fill:#801336;fill-opacity:1;stroke:none;stroke-width:1;stroke-miterlimit:4;stroke-dasharray:none;stroke-opacity:1"
         d="m -17.384105,186.23359 7.858807,4.53746 6.7e-5,-18.15071 -15.719004,-9.07529 1.45e-4,9.07465 7.859765,4.53809 z"
         id="path1111" />
      <path
         id="path1113"
         d="m -1.666357,186.23359 -7.858807,4.53746 -6.7e-5,-18.15071 15.719004,-9.07529 -1.45e-4,9.07465 -7.859765,4.53809 z"
         style="opacity:1;fill:#ee4540;fill-opacity:1;stroke:none;stroke-width:1;stroke-miterlimit:4;stroke-dasharray:none;stroke-opacity:1"
         inkscape:connector-curvature="0" />
      <path
         inkscape:connector-curvature="0"
         style="opacity:1;fill:#c72c41;fill-opacity:1;stroke:none;stroke-width:1;stroke-miterlimit:4;stroke-dasharray:none;stroke-opacity:1"
         d="m 6.192882,145.39499 -7.858952,4.53719 15.718937,9.07542 15.718937,-9.07542 -7.858951,-4.53719 -7.859986,4.53771 z"
         id="path1115" />
      <path
         id="path1117"
         d="m 6.193993,172.62085 7.858807,4.53746 6.7e-5,-18.15071 -15.719004,-9.07529 1.45e-4,9.07465 7.859765,4.53809 z"
         style="opacity:1;fill:#801336;fill-opacity:1;stroke:none;stroke-width:1;stroke-miterlimit:4;stroke-dasharray:none;stroke-opacity:1"
         inkscape:connector-curvature="0" />
      <path
         inkscape:connector-curvature="0"
         style="opacity:1;fill:#ee4540;fill-opacity:1;stroke:none;stroke-width:1;stroke-miterlimit:4;stroke-dasharray:none;stroke-opacity:1"
         d="m 21.911741,172.62085 -7.858807,4.53746 -6.7e-5,-18.15071 15.719004,-9.07529 -1.45e-4,9.07465 -7.859765,4.53809 z"
         id="path1119" />
      <path
         id="path1121"
         d="m 6.193046,118.16823 -7.858952,4.53719 15.718937,9.07542 15.718937,-9.07542 -7.858951,-4.53719 -7.859986,4.53771 z"
         style="opacity:1;fill:#c72c41;fill-opacity:1;stroke:none;stroke-width:1;stroke-miterlimit:4;stroke-dasharray:none;stroke-opacity:1"
         inkscape:connector-curvature="0" />
      <path
         inkscape:connector-curvature="0"
         style="opacity:1;fill:#801336;fill-opacity:1;stroke:none;stroke-width:1;stroke-miterlimit:4;stroke-dasharray:none;stroke-opacity:1"
         d="m 6.194157,145.39409 7.858807,4.53746 6.7e-5,-18.15071 -15.719004,-9.07529 1.45e-4,9.07465 7.859765,4.53809 z"
         id="path1123" />
      <path
         id="path1125"
         d="m 21.911905,145.39409 -7.858807,4.53746 -6.7e-5,-18.15071 15.719004,-9.07529 -1.45e-4,9.07465 -7.859765,4.53809 z"
         style="opacity:1;fill:#ee4540;fill-opacity:1;stroke:none;stroke-width:1;stroke-miterlimit:4;stroke-dasharray:none;stroke-opacity:1"
         inkscape:connector-curvature="0" />
    </g>
  </g>
</svg>
